<?xml version="1.0" standalone="no"?>
<!DOCTYPE svg PUBLIC "-//W3C//DTD SVG 20010904//EN"
 "http://www.w3.org/TR/2001/REC-SVG-20010904/DTD/svg10.dtd">
<svg version="1.0" xmlns="http://www.w3.org/2000/svg"
 width="512.000000pt" height="512.000000pt" viewBox="0 0 512.000000 512.000000"
 preserveAspectRatio="xMidYMid meet">
<metadata>
Created by potrace 1.11, written by Peter Selinger 2001-2013
</metadata>
<g transform="translate(0.000000,512.000000) scale(0.100000,-0.100000)"
fill="#000000" stroke="none">
<path d="M2195 4986 c-331 -53 -639 -164 -905 -327 -928 -569 -1371 -1650
-1109 -2703 215 -862 913 -1560 1775 -1775 1321 -329 2644 461 2982 1779 55
214 67 319 67 600 0 278 -10 369 -66 592 -218 874 -900 1561 -1772 1784 -205
52 -315 66 -577 70 -221 3 -260 1 -395 -20z m622 -1748 c-2 -7 -78 -318 -168
-690 l-164 -678 -92 0 -91 0 13 58 c8 31 82 340 164 685 83 346 151 631 151
633 0 2 43 4 96 4 73 0 95 -3 91 -12z m-607 -314 l0 -125 -32 -13 c-18 -7
-160 -62 -315 -121 -156 -59 -283 -110 -283 -114 0 -3 142 -62 315 -130 l315
-124 0 -124 c0 -114 -1 -124 -17 -119 -10 3 -214 91 -453 195 l-435 189 -3
110 -3 110 108 47 c59 25 261 113 448 195 187 81 343 149 348 149 4 1 7 -55 7
-125z m1163 -74 l448 -193 -3 -110 -3 -109 -445 -194 c-245 -107 -448 -194
-452 -194 -5 0 -8 55 -8 123 l0 124 315 123 c173 68 315 126 315 129 0 3 -141
61 -312 127 l-313 122 -3 127 c-1 69 1 125 5 122 4 -2 210 -91 456 -197z"/>
</g>
</svg>
